<svg width="195" height="64" viewBox="0 0 195 64" fill="none" xmlns="http://www.w3.org/2000/svg">
<path d="M106.08 30.96V33.12C106.08 37.12 104.8 40.36 102.24 42.84C99.68 45.32 96.3733 46.56 92.32 46.56C88 46.56 84.4133 45.16 81.56 42.36C78.7333 39.5333 77.32 36.0933 77.32 32.04C77.32 27.96 78.72 24.5067 81.52 21.68C84.3467 18.8533 87.84 17.44 92 17.44C94.6133 17.44 97 18.04 99.16 19.24C101.32 20.4133 103 21.9867 104.2 23.96L99.48 26.68C98.8133 25.5333 97.8 24.6 96.44 23.88C95.1067 23.16 93.6133 22.8 91.96 22.8C89.2933 22.8 87.0933 23.68 85.36 25.44C83.6533 27.1733 82.8 29.3733 82.8 32.04C82.8 34.68 83.6667 36.8667 85.4 38.6C87.16 40.3067 89.48 41.16 92.36 41.16C94.4933 41.16 96.2533 40.6933 97.64 39.76C99.0533 38.8 100.013 37.4933 100.52 35.84H92.04V30.96H106.08ZM114.126 38.12C114.82 40.6267 116.7 41.88 119.766 41.88C121.74 41.88 123.233 41.2133 124.246 39.88L128.406 42.28C126.433 45.1333 123.526 46.56 119.686 46.56C116.38 46.56 113.726 45.56 111.726 43.56C109.726 41.56 108.726 39.04 108.726 36C108.726 32.9867 109.713 30.48 111.686 28.48C113.66 26.4533 116.193 25.44 119.286 25.44C122.22 25.44 124.633 26.4533 126.526 28.48C128.446 30.5067 129.406 33.0133 129.406 36C129.406 36.6667 129.34 37.3733 129.206 38.12H114.126ZM114.046 34.12H124.246C123.953 32.76 123.34 31.7467 122.406 31.08C121.5 30.4133 120.46 30.08 119.286 30.08C117.9 30.08 116.753 30.44 115.846 31.16C114.94 31.8533 114.34 32.84 114.046 34.12ZM138.168 29.44C138.648 28.16 139.435 27.2 140.528 26.56C141.648 25.92 142.888 25.6 144.248 25.6V31.36C142.675 31.1733 141.262 31.4933 140.008 32.32C138.782 33.1467 138.168 34.52 138.168 36.44V46H133.008V26H138.168V29.44ZM161.684 18H166.844V46H161.684V43.64C160.164 45.5867 158.004 46.56 155.204 46.56C152.511 46.56 150.204 45.5467 148.284 43.52C146.391 41.4667 145.444 38.96 145.444 36C145.444 33.04 146.391 30.5467 148.284 28.52C150.204 26.4667 152.511 25.44 155.204 25.44C158.004 25.44 160.164 26.4133 161.684 28.36V18ZM152.164 40.08C153.231 41.12 154.564 41.64 156.164 41.64C157.764 41.64 159.084 41.12 160.124 40.08C161.164 39.0133 161.684 37.6533 161.684 36C161.684 34.3467 161.164 33 160.124 31.96C159.084 30.8933 157.764 30.36 156.164 30.36C154.564 30.36 153.231 30.8933 152.164 31.96C151.124 33 150.604 34.3467 150.604 36C150.604 37.6533 151.124 39.0133 152.164 40.08ZM186.763 26H191.923V46H186.763V43.64C185.216 45.5867 183.043 46.56 180.243 46.56C177.576 46.56 175.283 45.5467 173.363 43.52C171.47 41.4667 170.523 38.96 170.523 36C170.523 33.04 171.47 30.5467 173.363 28.52C175.283 26.4667 177.576 25.44 180.243 25.44C183.043 25.44 185.216 26.4133 186.763 28.36V26ZM177.243 40.08C178.283 41.12 179.603 41.64 181.203 41.64C182.803 41.64 184.123 41.12 185.163 40.08C186.23 39.0133 186.763 37.6533 186.763 36C186.763 34.3467 186.23 33 185.163 31.96C184.123 30.8933 182.803 30.36 181.203 30.36C179.603 30.36 178.283 30.8933 177.243 31.96C176.203 33 175.683 34.3467 175.683 36C175.683 37.6533 176.203 39.0133 177.243 40.08Z" fill="#0177FC"/>
<g clip-path="url(#clip0_4133_8784)">
<rect x="-59.6758" y="81.557" width="115.339" height="30.1822" rx="15.0911" transform="rotate(-45 -59.6758 81.557)" fill="url(#paint0_linear_4133_8784)"/>
<rect x="124.521" y="-17.5769" width="115.339" height="30.1822" rx="15.0911" transform="rotate(135 124.521 -17.5769)" fill="url(#paint1_linear_4133_8784)"/>
</g>
<rect x="0.432432" y="0.432432" width="63.1351" height="63.1351" stroke="#0177FC" stroke-width="0.864865"/>
<defs>
<linearGradient id="paint0_linear_4133_8784" x1="70.7853" y1="96.679" x2="-74.7978" y2="96.6791" gradientUnits="userSpaceOnUse">
<stop stop-color="#0177FC"/>
<stop offset="1" stop-color="#0177FC" stop-opacity="0"/>
</linearGradient>
<linearGradient id="paint1_linear_4133_8784" x1="254.982" y1="-2.45488" x2="109.399" y2="-2.45487" gradientUnits="userSpaceOnUse">
<stop stop-color="#0177FC"/>
<stop offset="1" stop-color="#0177FC" stop-opacity="0"/>
</linearGradient>
<clipPath id="clip0_4133_8784">
<rect width="64" height="64" fill="white"/>
</clipPath>
</defs>
</svg>
